# 3ds Max Wavefront OBJ Exporter v0.97b - (c)2007 guruware
# File Created: 01.04.2013 23:34:25

mtllib goomba.mtl

#
# object Mesh_0004
#

v  11.0336 -0.3385 13.0251
v  1.0267 -0.2919 -3.8817
v  17.9473 -0.2283 15.8441
v  26.0662 -0.2488 11.1398
v  27.0432 -0.3570 3.7683
v  18.1150 -0.3060 -13.7825
v  6.9371 -0.3331 -13.3708
v  -11.5572 -0.3385 13.0251
v  -18.4710 -0.2283 15.8441
v  -1.5503 -0.2919 -3.8817
v  -26.5899 -0.2488 11.1398
v  -7.4608 -0.3331 -13.3708
v  -18.6387 -0.3060 -13.7825
v  -27.5668 -0.3570 3.7683
v  13.2690 36.0497 21.3237
v  21.1038 34.4986 24.5448
v  19.4543 46.7132 23.0148
v  20.9088 36.1077 15.1300
v  -13.1434 36.0497 21.3237
v  -20.7833 36.1077 15.1300
v  -19.3287 46.7132 23.0148
v  -20.9782 34.4986 24.5448
v  10.0967 45.3328 31.5770
v  8.8155 58.5312 23.4468
v  -10.8273 45.3425 31.5430
v  -8.9892 58.5932 23.3893
v  -19.4675 41.7016 18.7988
v  -20.3077 56.0408 15.3009
v  -15.5650 70.7338 10.7932
v  -0.0792 72.2478 17.4401
v  15.4066 70.7243 10.6817
v  20.1499 56.0371 15.3000
v  19.7053 41.6890 19.4439
v  -9.5835 41.4123 30.1689
v  9.9336 41.3327 30.1399
v  -25.2595 38.3092 20.0599
v  -27.2345 55.1066 7.3288
v  -21.3561 69.8010 -0.5266
v  -10.6712 78.2312 7.9127
v  10.5128 78.2312 7.9127
v  21.1977 69.8022 -0.5266
v  27.0764 55.1637 7.2918
v  25.1030 38.3088 20.0589
v  -37.0168 42.3125 -13.1323
v  -27.2346 57.4855 -10.2095
v  -10.6712 77.4791 -13.3768
v  -0.0792 81.9918 -0.3638
v  10.5128 77.4791 -13.3768
v  27.0762 57.4810 -10.2095
v  36.0337 42.4759 -13.1388
v  36.0337 40.4874 9.7021
v  28.2423 29.4014 20.7814
v  13.0569 40.8450 30.5994
v  13.4477 32.1493 32.4153
v  -13.2160 40.9715 30.5694
v  -0.0564 38.7272 24.1415
v  11.8851 60.0561 -25.3495
v  -12.0396 60.0581 -25.3495
v  -14.5287 43.4575 -32.5937
v  -26.2265 32.1682 -23.4042
v  -36.8852 30.6195 -0.3389
v  -35.9038 39.4640 9.6336
v  -28.3911 29.4014 20.7815
v  -24.9061 24.7236 -1.1360
v  -0.1618 26.0109 -21.2815
v  -0.0745 31.5409 -31.9250
v  -13.6067 32.1493 32.4153
v  -0.0745 29.7579 29.2209
v  -0.0580 26.4506 16.2095
v  24.8316 24.8201 -0.3113
v  -0.2710 24.9242 -0.3175
v  14.3702 43.4575 -32.5937
v  26.0774 31.0340 -23.4042
v  37.0168 30.6195 -0.3389
v  26.9773 71.1577 1.5505
v  20.6360 78.2054 7.0787
v  20.5338 73.7371 6.8893
v  13.9936 75.2913 14.0499
v  15.1224 72.1914 12.7363
v  6.9170 66.1283 21.2303
v  7.6502 64.6972 20.8574
v  1.4651 62.1587 23.2323
v  1.6380 61.0515 22.9498
v  -1.6356 61.0515 22.9498
v  -1.4627 62.1587 23.2323
v  -7.6478 64.6972 20.8574
v  -6.9147 66.1283 21.2303
v  -15.1200 72.1914 12.7363
v  -13.9912 75.2913 14.0499
v  -20.5315 73.7371 6.8893
v  -20.6336 78.2054 7.0787
v  -26.9749 71.1577 1.5505
v  -0.2617 75.6961 -0.9356
v  -17.4935 16.6971 -1.6125
v  -8.7117 16.6971 12.6904
v  -15.3633 9.1124 1.7498
v  -0.2618 9.1124 11.6414
v  8.1880 16.6971 12.6904
v  -9.3316 16.6971 -13.6263
v  -8.2104 9.1124 -10.7417
v  -0.2618 4.8862 -1.0741
v  14.8397 9.1124 1.7498
v  16.9699 16.6971 -1.6125
v  8.8079 16.6971 -13.6263
v  7.6867 9.1124 -10.7417
v  -0.1920 6.5268 -5.4097
v  -0.2953 6.6074 -5.2228
v  -12.2215 7.8597 15.4044
v  -19.0433 16.3742 7.9828
v  -23.1344 10.6712 13.6259
v  -29.2761 7.8499 5.5291
v  -17.9582 6.6213 -15.7034
v  -9.9504 11.9910 -8.9500
v  -6.4730 6.4636 -15.0734
v  5.9494 6.4636 -15.0734
v  9.4268 11.9910 -8.9499
v  17.4346 6.6213 -15.7034
v  18.5196 16.3742 7.9828
v  28.7524 7.8499 5.5291
v  22.6108 10.6712 13.6259
v  11.6978 7.8597 15.4044
v  -0.1642 6.6588 -5.2218
v  -0.3284 6.6067 -5.4326
# 123 vertices

vn -0.4892 -0.7062 0.5118
vn -0.7381 -0.6728 0.0504
vn 0.0952 -0.6263 0.7738
vn 0.6967 -0.4932 0.5209
vn 0.6862 -0.7111 -0.1534
vn 0.4301 -0.6662 -0.6093
vn 0.0004 -1.0000 0.0022
vn -0.3458 -0.7236 -0.5974
vn 0.4889 -0.7064 0.5119
vn -0.0952 -0.6263 0.7738
vn 0.7372 -0.6738 0.0502
vn -0.6207 -0.6317 0.4644
vn 0.3455 -0.7237 -0.5974
vn -0.4301 -0.6662 -0.6093
vn -0.6862 -0.7111 -0.1534
vn -0.8625 0.4710 0.1849
vn 0.5749 0.1777 0.7987
vn 0.0935 0.9700 0.2244
vn 0.4302 0.5759 -0.6952
vn 0.8625 0.4710 0.1849
vn -0.4302 0.5759 -0.6952
vn -0.0935 0.9700 0.2244
vn -0.5749 0.1777 0.7987
vn 0.3813 0.0872 0.9203
vn 0.3164 0.4993 0.8066
vn -0.4252 0.0474 0.9039
vn -0.3130 0.5030 0.8056
vn -0.3296 0.2210 0.9179
vn -0.6691 0.3657 0.6470
vn -0.6182 0.5421 0.5691
vn 0.0014 0.6394 0.7688
vn 0.6197 0.5409 0.5688
vn 0.6670 0.3721 0.6455
vn 0.3526 0.1912 0.9160
vn -0.2887 -0.7105 0.6417
vn 0.3306 -0.6826 0.6517
vn -0.5328 0.4389 0.7236
vn -0.8140 0.4580 0.3573
vn -0.7924 0.6085 0.0426
vn -0.4096 0.8249 0.3896
vn 0.4110 0.8231 0.3919
vn 0.7921 0.6088 0.0436
vn 0.8116 0.4661 0.3521
vn 0.5330 0.4249 0.7317
vn -0.9152 0.1556 -0.3718
vn -0.8014 0.5133 -0.3069
vn -0.3781 0.7871 -0.4874
vn 0.0000 0.9994 0.0332
vn 0.3781 0.7871 -0.4874
vn 0.8094 0.5012 -0.3061
vn 0.9058 0.1834 -0.3820
vn 0.8918 0.2244 0.3929
vn 0.6030 -0.5283 0.5977
vn 0.2474 0.7984 0.5489
vn 0.2903 -0.4017 0.8685
vn -0.2463 0.8030 0.5427
vn -0.0423 0.4523 0.8909
vn 0.3495 0.4807 -0.8042
vn -0.3494 0.4808 -0.8042
vn -0.3508 0.1030 -0.9308
vn -0.5418 -0.5430 -0.6416
vn -0.8410 -0.5407 -0.0184
vn -0.8983 0.1871 0.3975
vn -0.6094 -0.5252 0.5940
vn -0.2466 -0.9680 -0.0466
vn -0.0123 -0.9535 -0.3011
vn -0.0094 -0.5711 -0.8208
vn -0.2904 -0.4017 0.8685
vn 0.0000 -0.9102 0.4141
vn -0.0002 -0.9823 0.1874
vn 0.2352 -0.9717 -0.0203
vn 0.0017 -0.9998 0.0209
vn 0.3522 0.1102 -0.9294
vn 0.5412 -0.5609 -0.6265
vn 0.8518 -0.5234 -0.0222
vn 0.6260 -0.0473 0.7784
vn 0.6917 -0.0464 0.7207
vn 0.6796 -0.0440 0.7323
vn 0.7316 -0.0264 0.6813
vn 0.7304 -0.0158 0.6829
vn 0.5472 0.0446 0.8358
vn 0.5241 0.0393 0.8507
vn 0.4076 -0.1506 0.9006
vn 0.4117 -0.1644 0.8964
vn -0.4117 -0.1644 0.8964
vn -0.4076 -0.1506 0.9006
vn -0.5241 0.0393 0.8507
vn -0.5472 0.0446 0.8358
vn -0.7304 -0.0158 0.6829
vn -0.7316 -0.0264 0.6813
vn -0.6796 -0.0440 0.7323
vn -0.6917 -0.0464 0.7207
vn -0.6260 -0.0473 0.7784
vn 0.0000 1.0000 -0.0039
vn -0.9975 -0.0034 -0.0706
vn -0.4867 -0.0667 0.8710
vn -0.7560 -0.6288 0.1819
vn 0.0000 -0.6727 0.7399
vn 0.4867 -0.0667 0.8710
vn -0.4666 -0.0591 -0.8825
vn -0.3701 -0.6728 -0.6406
vn 0.0000 -1.0000 -0.0086
vn 0.7560 -0.6288 0.1819
vn 0.9975 -0.0034 -0.0706
vn 0.4666 -0.0591 -0.8825
vn 0.3701 -0.6728 -0.6406
vn 0.9536 0.2834 -0.1014
vn 0.8119 0.5095 0.2850
vn 0.4865 0.3320 0.8081
vn -0.0864 0.9779 0.1902
vn -0.4664 0.4778 0.7445
vn -0.9419 0.3353 -0.0194
vn -0.4259 0.3285 -0.8430
vn 0.1936 0.9209 -0.3383
vn 0.4832 0.2653 -0.8343
vn -0.4825 0.2644 -0.8350
vn -0.1921 0.9212 -0.3384
vn 0.4259 0.3285 -0.8430
vn 0.0865 0.9779 0.1902
vn 0.9419 0.3353 -0.0194
vn 0.4664 0.4778 0.7445
vn -0.4867 0.3319 0.8080
vn -0.5633 0.7948 0.2260
vn -0.9395 0.3369 -0.0624
# 124 vertex normals

vt 0.3691 0.9033 0.0000
vt 0.3877 0.6670 0.0000
vt 0.2832 0.9785 0.0000
vt 0.1191 0.9775 0.0000
vt 0.0244 0.9170 0.0000
vt 0.0078 0.6592 0.0000
vt 0.1904 0.6035 0.0000
vt 0.7031 0.0049 0.0000
vt 0.6719 0.0059 0.0000
vt 0.6885 0.0381 0.0000
vt 0.8408 0.5576 0.0000
vt 0.8311 0.7803 0.0000
vt 0.6172 0.5596 0.0000
vt 0.6299 0.7813 0.0000
vt 0.5361 0.5244 0.0000
vt 0.5098 0.7383 0.0000
vt 0.5498 0.9873 0.0000
vt 0.7334 0.9912 0.0000
vt 0.9170 0.9873 0.0000
vt 0.9580 0.7383 0.0000
vt 0.9268 0.5254 0.0000
vt 0.0479 0.1035 0.0000
vt 0.0293 0.1064 0.0000
vt 0.0313 0.1221 0.0000
vt 0.0996 0.1934 0.0000
vt 0.0625 0.0732 0.0000
vt 0.1309 0.1777 0.0000
vt 0.1123 0.2578 0.0000
vt 0.1729 0.2520 0.0000
vt 0.1240 0.3037 0.0000
vt 0.0840 0.2666 0.0000
vt 0.0469 0.1025 0.0000
vt 0.2314 0.0859 0.0000
vt 0.2178 0.1846 0.0000
vt 0.2285 0.3057 0.0000
vt 0.1787 0.3242 0.0000
vt 0.1104 0.0811 0.0000
vt 0.0723 0.0420 0.0000
vt 0.0215 0.0781 0.0000
vt 0.0342 0.0518 0.0000
vt 0.0391 0.0869 0.0000
vt 0.0225 0.0957 0.0000
vt 0.2793 0.1982 0.0000
vt 0.3115 0.1006 0.0000
vt 0.2734 0.0391 0.0000
vt 0.1729 0.0381 0.0000
vt 0.1729 0.0195 0.0000
vt 0.2695 0.0166 0.0000
vt 0.3115 0.0469 0.0000
vt 0.0361 0.0332 0.0000
vt 0.0957 0.0117 0.0000
vt 0.1729 0.0068 0.0000
vt 0.8643 0.1494 0.0000
vt 0.8291 0.1660 0.0000
vt 0.8291 0.1299 0.0000
vt 0.7959 0.1660 0.0000
vt 0.7959 0.1309 0.0000
vt 0.7490 0.1641 0.0000
vt 0.7490 0.1318 0.0000
vt 0.7197 0.1621 0.0000
vt 0.7197 0.1338 0.0000
vt 0.6250 0.2842 0.0000
vt 0.6602 0.2402 0.0000
vt 0.5059 0.2500 0.0000
vt 0.6230 0.1963 0.0000
vt 0.5781 0.1816 0.0000
vt 0.7266 0.1250 0.0000
vt 0.7178 0.0596 0.0000
vt 0.7236 0.0596 0.0000
vt 0.7207 0.0498 0.0000
vt 0.7266 0.0498 0.0000
vt 0.7295 0.0596 0.0000
vt 0.7139 0.1250 0.0000
vt 0.7139 0.0596 0.0000
vt 0.7139 0.0498 0.0000
vt 0.7275 0.0469 0.0000
vt 0.7324 0.0498 0.0000
vt 0.7354 0.0596 0.0000
vt 0.7383 0.0596 0.0000
vt 0.7383 0.0498 0.0000
vt 0.7441 0.0498 0.0000
vt 0.7441 0.0596 0.0000
vt 0.7412 0.1250 0.0000
vt 0.8848 0.2412 0.0000
vt 0.8828 0.2412 0.0000
vt 0.6953 0.2334 0.0000
vt 0.7178 0.2891 0.0000
vt 0.6719 0.2363 0.0000
vt 0.8730 0.3066 0.0000
vt 0.9229 0.2451 0.0000
vt 0.8701 0.3057 0.0000
vt 0.9102 0.1777 0.0000
vt 0.8711 0.1846 0.0000
vt 0.7109 0.1865 0.0000
vt 0.6992 0.1865 0.0000
vt 0.8721 0.1836 0.0000
vt 0.8828 0.2422 0.0000
vt 0.8848 0.2422 0.0000
# 98 texture coords

g Mesh_0004
usemtl goomba_tex
s 1
f 1/1/1 2/2/2 3/3/3 
s 2
f 2/2/2 4/4/4 3/3/3 
s 7
f 5/5/5 4/4/4 6/6/6 
s 8
f 4/4/7 2/2/2 6/6/6 
s 9
f 6/6/6 2/2/2 7/7/8 
s 15
f 8/1/9 9/3/10 10/2/11 
s 16
f 9/3/10 11/4/12 10/2/11 
s 21
f 12/7/13 10/2/11 13/6/14 
s 22
f 10/2/11 11/4/12 13/6/14 
s 23
f 13/6/14 11/4/12 14/5/15 
s 29
f 15/8/16 16/9/17 17/10/18 
s 30
f 16/9/17 18/8/19 17/10/18 
s 31
f 17/10/18 18/8/19 15/9/16 
s 37
f 19/9/20 20/8/21 21/10/22 
s 38
f 20/8/21 22/9/23 21/10/22 
s 39
f 21/10/22 22/9/23 19/8/20 
s 45
f 23/11/24 24/12/25 25/13/26 
s 46
f 24/12/25 26/14/27 25/13/26 
s 51
f 27/15/28 25/13/26 28/16/29 
s 52
f 25/13/26 26/14/27 28/16/29 
s 53
f 28/16/29 26/14/27 29/17/30 
s 55
f 29/17/30 26/14/27 30/18/31 
s 56
f 26/14/27 24/12/25 30/18/31 
s 57
f 30/18/31 24/12/25 31/19/32 
s 59
f 31/19/32 24/12/25 32/20/33 
s 60
f 24/12/25 23/11/24 32/20/33 
s 61
f 32/20/33 23/11/24 33/21/34 
s 67
f 27/22/28 34/23/35 25/24/26 
s 69
f 25/24/26 34/23/35 23/24/24 
s 70
f 34/23/35 35/23/36 23/24/24 
s 71
f 23/24/24 35/23/36 33/22/34 
s 76
f 27/22/28 28/25/29 36/26/37 
s 77
f 36/26/37 28/25/29 37/27/38 
s 78
f 28/25/29 29/28/30 37/27/38 
s 79
f 37/27/38 29/28/30 38/29/39 
s 81
f 38/29/39 29/28/30 39/30/40 
s 82
f 29/28/30 30/31/31 39/30/40 
s 83
f 39/30/40 30/31/31 40/30/41 
s 84
f 30/31/31 31/28/32 40/30/41 
s 85
f 40/30/41 31/28/32 41/29/42 
s 87
f 41/29/42 31/28/32 42/27/43 
s 88
f 31/28/32 32/25/33 42/27/43 
s 89
f 42/27/43 32/25/33 43/26/44 
s 90
f 32/25/33 33/32/34 43/26/44 
s 95
f 44/33/45 37/27/38 45/34/46 
s 96
f 37/27/38 38/29/39 45/34/46 
s 97
f 45/34/46 38/29/39 46/35/47 
s 98
f 38/29/39 39/30/40 46/35/47 
s 99
f 46/35/47 39/30/40 47/36/48 
s 100
f 39/30/40 40/30/41 47/36/48 
s 101
f 47/36/48 40/30/41 48/35/49 
s 102
f 40/30/41 41/29/42 48/35/49 
s 103
f 48/35/49 41/29/42 49/34/50 
s 104
f 41/29/42 42/27/43 49/34/50 
s 105
f 49/34/50 42/27/43 50/33/51 
s 107
f 50/33/51 42/27/43 51/37/52 
s 108
f 42/27/43 43/26/44 51/37/52 
s 109
f 51/37/52 43/26/44 52/38/53 
s 110
f 43/26/44 53/39/54 52/38/53 
s 111
f 52/38/53 53/39/54 54/40/55 
s 113
f 54/40/55 53/39/54 55/41/56 
s 114
f 53/39/54 56/42/57 55/41/56 
s 119
f 47/36/48 48/35/49 46/35/47 
s 124
f 49/34/50 57/43/58 48/35/49 
s 125
f 48/35/49 57/43/58 46/35/47 
s 126
f 57/43/58 58/43/59 46/35/47 
s 127
f 46/35/47 58/43/59 45/34/46 
s 128
f 58/43/59 59/44/60 45/34/46 
s 129
f 45/34/46 59/44/60 44/33/45 
s 130
f 59/44/60 60/45/61 44/33/45 
s 132
f 60/45/61 61/46/62 44/33/45 
s 133
f 44/33/45 61/46/62 62/37/63 
s 135
f 62/37/63 61/46/62 63/38/64 
s 137
f 63/38/64 61/46/62 64/47/65 
s 138
f 61/46/62 60/45/61 64/47/65 
s 139
f 64/47/65 60/45/61 65/48/66 
s 141
f 65/48/66 60/45/61 66/49/67 
s 142
f 60/45/61 59/44/60 66/49/67 
s 147
f 44/33/45 62/37/63 37/27/38 
s 149
f 37/27/38 62/37/63 36/26/37 
s 150
f 62/37/63 63/38/64 36/26/37 
s 151
f 36/26/37 63/38/64 55/41/56 
s 152
f 63/38/64 67/40/68 55/41/56 
s 153
f 55/41/56 67/40/68 54/40/55 
s 154
f 67/40/68 68/50/69 54/40/55 
s 155
f 54/40/55 68/50/69 52/38/53 
s 156
f 68/50/69 69/51/70 52/38/53 
s 157
f 52/38/53 69/51/70 70/47/71 
s 158
f 69/51/70 71/52/72 70/47/71 
s 159
f 70/47/71 71/52/72 65/48/66 
s 161
f 65/48/66 71/52/72 64/47/65 
s 162
f 71/52/72 69/51/70 64/47/65 
s 163
f 64/47/65 69/51/70 63/38/64 
s 164
f 69/51/70 68/50/69 63/38/64 
s 165
f 63/38/64 68/50/69 67/40/68 
s 171
f 57/43/58 49/34/50 72/44/73 
s 172
f 49/34/50 50/33/51 72/44/73 
s 174
f 50/33/51 73/45/74 72/44/73 
s 175
f 72/44/73 73/45/74 66/49/67 
s 177
f 66/49/67 73/45/74 65/48/66 
s 179
f 65/48/66 73/45/74 70/47/71 
s 180
f 73/45/74 74/46/75 70/47/71 
s 181
f 70/47/71 74/46/75 52/38/53 
s 183
f 52/38/53 74/46/75 51/37/52 
s 185
f 51/37/52 74/46/75 50/33/51 
s 186
f 74/46/75 73/45/74 50/33/51 
s 191
f 66/49/67 59/44/60 72/44/73 
s 193
f 72/44/73 59/44/60 57/43/58 
s 194
f 59/44/60 58/43/59 57/43/58 
s 199
f 75/53/76 76/54/77 77/55/78 
s 200
f 76/54/77 78/56/79 77/55/78 
s 201
f 77/55/78 78/56/79 79/57/80 
s 202
f 78/56/79 80/58/81 79/57/80 
s 203
f 79/57/80 80/58/81 81/59/82 
s 204
f 80/58/81 82/60/83 81/59/82 
s 205
f 81/59/82 82/60/83 83/61/84 
s 211
f 84/61/85 85/60/86 86/59/87 
s 212
f 85/60/86 87/58/88 86/59/87 
s 213
f 86/59/87 87/58/88 88/57/89 
s 214
f 87/58/88 89/56/90 88/57/89 
s 215
f 88/57/89 89/56/90 90/55/91 
s 216
f 89/56/90 91/54/92 90/55/91 
s 217
f 90/55/91 91/54/92 92/53/93 
s 223
f 53/62/54 43/63/44 56/64/57 
s 224
f 43/63/44 33/65/34 56/64/57 
s 226
f 33/65/34 35/66/36 56/64/57 
s 228
f 35/66/36 34/66/35 56/64/57 
s 230
f 34/66/35 27/65/28 56/64/57 
s 232
f 27/65/28 36/63/37 56/64/57 
s 233
f 56/64/57 36/63/37 55/62/56 
s 239
f 93/67/94 94/68/95 95/69/96 
s 240
f 94/68/95 96/70/97 95/69/96 
s 242
f 96/70/97 97/71/98 95/69/96 
s 244
f 97/71/98 98/72/99 95/69/96 
s 245
f 95/69/96 98/72/99 93/67/94 
s 251
f 93/73/94 99/74/100 94/68/95 
s 252
f 99/74/100 100/75/101 94/68/95 
s 253
f 94/68/95 100/75/101 96/70/97 
s 254
f 100/75/101 101/76/102 96/70/97 
s 255
f 96/70/97 101/76/102 97/71/98 
s 256
f 101/76/102 102/77/103 97/71/98 
s 257
f 97/71/98 102/77/103 98/72/99 
s 258
f 102/77/103 103/78/104 98/72/99 
s 259
f 98/72/99 103/78/104 93/67/94 
s 261
f 93/67/94 103/78/104 104/79/105 
s 263
f 104/79/105 103/78/104 105/80/106 
s 264
f 103/78/104 102/77/103 105/80/106 
s 266
f 102/77/103 101/76/102 105/80/106 
s 268
f 101/76/102 100/81/101 105/80/106 
s 269
f 105/80/106 100/81/101 104/79/105 
s 270
f 100/81/101 99/82/100 104/79/105 
s 271
f 104/79/105 99/82/100 93/83/94 
s 277
f 106/84/107 107/85/108 108/86/109 
s 278
f 107/85/108 109/87/110 108/86/109 
s 279
f 108/86/109 109/87/110 110/88/111 
s 281
f 110/88/111 109/87/110 111/86/112 
s 283
f 111/86/112 109/87/110 112/84/113 
s 284
f 109/87/110 113/89/114 112/84/113 
s 285
f 112/84/113 113/89/114 114/90/115 
s 291
f 109/87/110 107/85/108 113/91/114 
s 292
f 107/85/108 106/84/107 113/91/114 
s 293
f 113/91/114 106/84/107 114/90/115 
s 294
f 106/84/107 12/92/13 114/90/115 
s 295
f 114/90/115 12/92/13 112/84/113 
s 296
f 12/92/13 13/93/14 112/84/113 
s 298
f 13/93/14 14/94/15 112/84/113 
s 299
f 112/84/113 14/94/15 111/86/112 
s 300
f 14/94/15 11/95/12 111/86/112 
s 301
f 111/86/112 11/95/12 110/88/111 
s 302
f 11/95/12 9/95/10 110/88/111 
s 303
f 110/88/111 9/95/10 108/86/109 
s 304
f 9/95/10 8/94/9 108/86/109 
s 305
f 108/86/109 8/94/9 106/84/107 
s 306
f 8/94/9 10/96/11 106/84/107 
s 308
f 10/96/11 12/92/13 106/84/107 
s 317
f 115/90/116 116/89/117 117/84/118 
s 318
f 116/89/117 118/87/119 117/84/118 
s 319
f 117/84/118 118/87/119 119/86/120 
s 321
f 119/86/120 118/87/119 120/88/121 
s 323
f 120/88/121 118/87/119 121/86/122 
s 324
f 118/87/119 122/97/123 121/86/122 
s 325
f 121/86/122 122/97/123 123/84/124 
s 329
f 115/90/116 123/98/124 116/91/117 
s 330
f 123/98/124 122/97/123 116/91/117 
s 331
f 116/91/117 122/97/123 118/87/119 
s 337
f 6/93/6 117/84/118 5/94/5 
s 338
f 117/84/118 119/86/120 5/94/5 
s 339
f 5/94/5 119/86/120 4/95/4 
s 340
f 119/86/120 120/88/121 4/95/4 
s 341
f 4/95/4 120/88/121 3/95/3 
s 342
f 120/88/121 121/86/122 3/95/3 
s 343
f 3/95/3 121/86/122 1/94/1 
s 344
f 121/86/122 123/84/124 1/94/1 
s 345
f 1/94/1 123/84/124 2/96/2 
s 347
f 2/96/2 123/84/124 7/92/8 
s 348
f 123/84/124 115/90/116 7/92/8 
s 350
f 115/90/116 117/84/118 7/92/8 
s 351
f 7/92/8 117/84/118 6/93/6 
# 0 polygons - 198 triangles

